<svg version="1.1" viewBox="0 0 24 24" xmlns="http://www.w3.org/2000/svg">
 <g>
  <path d="m6.45-.00354c-.267 0-.48.0748-.653.213-.187.139-.28.32-.307.533v3c.0267.213.12.384.307.523.173.149.387.224.653.256l11.3-4e-5c.253-.032.48-.107.654-.256.173-.139.266-.31.266-.523v-.747h.92v3h-9.39v1.86c-5.68.655-10.2 4.34-10.2 8.64 0 1.26.28 2.5.86 3.63l.28.56 2.68.384c.4 1.26 1.84 2.19 3.56 2.19v.368c0 .208.2.368.46.368l.92-2e-4c.26 0 .46-.16.46-.368l2e-5-6.64c0-.224-.2-.368-.46-.368h-.92c-.26 0-.46.144-.46.368v.368c-1.4 0-2.6.608-3.22 1.5l-.98-.128c-.28-.72-.42-1.46-.42-2.24 0-3.04 3.3-5.77 7.44-6.39v2.5h-1.82l1.82 1.45v.189h-.992l2.03 1.63h-1.23l2.05 1.64 2.05-1.64h-1.23l2.03-1.63h-.982v-.197l1.81-1.45h-1.81v-2.48c4.06.671 7.27 3.36 7.27 6.37 0 .784-.14 1.52-.42 2.24l-.98.128c-.64-.896-1.82-1.5-3.22-1.5l-1e-4-.368c0-.224-.2-.368-.46-.368h-.92c-.26 0-.46.144-.46.368v6.64c0 .208.2.368.46.368l.92-2e-4c.26 0 .46-.16.46-.368v-.368c1.72 0 3.16-.928 3.56-2.19l2.66-.384.3-.56c.58-1.14.88-2.37.88-3.63 0-4.26-4.45-7.92-10.1-8.62v-.364h7.55v-6.03h-2.83v-.736c0-.213-.0933-.395-.267-.533-.173-.139-.4-.213-.653-.213z" fill="#ff8a00" stroke-width=".0458"/>
 </g>
</svg>
